<svg width="139" height="146" viewBox="0 0 139 146" fill="none" xmlns="http://www.w3.org/2000/svg">
<path d="M92.7054 91.8391C107.497 68.6291 105.637 71.5247 106.064 70.9196C111.449 63.324 114.295 54.3843 114.295 45.0664C114.295 20.3559 94.2428 0 69.5 0C44.8378 0 24.7051 20.3157 24.7051 45.0664C24.7051 54.3783 27.611 63.5521 33.1727 71.25L46.2941 91.8394C32.2651 93.9952 8.41602 100.42 8.41602 114.566C8.41602 119.723 11.7819 127.072 27.8168 132.799C39.0134 136.798 53.8166 139 69.5 139C98.8271 139 130.584 130.727 130.584 114.566C130.584 100.417 106.763 93.9996 92.7054 91.8391ZM39.9758 66.7702C39.931 66.7002 39.8843 66.6318 39.8354 66.5644C35.2074 60.1976 32.8496 52.652 32.8496 45.0664C32.8496 24.7002 49.2489 8.14453 69.5 8.14453C89.709 8.14453 106.15 24.7075 106.15 45.0664C106.15 52.6642 103.837 59.9538 99.4594 66.1529C99.0671 66.6703 101.114 63.4907 69.5 113.097L39.9758 66.7702ZM69.5 130.855C37.4665 130.855 16.5605 121.44 16.5605 114.566C16.5605 109.947 27.3026 102.351 51.1064 99.3902L66.0657 122.864C66.8134 124.037 68.1084 124.747 69.4997 124.747C70.8911 124.747 72.1863 124.037 72.9337 122.864L87.8928 99.3902C111.697 102.351 122.439 109.947 122.439 114.566C122.439 121.381 101.722 130.855 69.5 130.855Z" fill="#B8C1C9"/>
<path d="M69.5 24.7051C58.2728 24.7051 49.1387 33.8392 49.1387 45.0664C49.1387 56.2936 58.2728 65.4277 69.5 65.4277C80.7272 65.4277 89.8613 56.2936 89.8613 45.0664C89.8613 33.8392 80.7272 24.7051 69.5 24.7051ZM69.5 57.2832C62.7637 57.2832 57.2832 51.8027 57.2832 45.0664C57.2832 38.3301 62.7637 32.8496 69.5 32.8496C76.2363 32.8496 81.7168 38.3301 81.7168 45.0664C81.7168 51.8027 76.2363 57.2832 69.5 57.2832Z" fill="#B8C1C9"/>
<path d="M92.7054 98.8391C107.497 75.6291 105.637 78.5247 106.064 77.9196C111.449 70.324 114.295 61.3843 114.295 52.0664C114.295 27.3559 94.2428 7 69.5 7C44.8378 7 24.7051 27.3157 24.7051 52.0664C24.7051 61.3783 27.611 70.5521 33.1727 78.25L46.2941 98.8394C32.2651 100.995 8.41602 107.42 8.41602 121.566C8.41602 126.723 11.7819 134.072 27.8168 139.799C39.0134 143.798 53.8166 146 69.5 146C98.8271 146 130.584 137.727 130.584 121.566C130.584 107.417 106.763 101 92.7054 98.8391ZM39.9758 73.7702C39.931 73.7002 39.8843 73.6318 39.8354 73.5644C35.2074 67.1976 32.8496 59.652 32.8496 52.0664C32.8496 31.7002 49.2489 15.1445 69.5 15.1445C89.709 15.1445 106.15 31.7075 106.15 52.0664C106.15 59.6642 103.837 66.9538 99.4594 73.1529C99.0671 73.6703 101.114 70.4907 69.5 120.097L39.9758 73.7702ZM69.5 137.855C37.4665 137.855 16.5605 128.44 16.5605 121.566C16.5605 116.947 27.3026 109.351 51.1064 106.39L66.0657 129.864C66.8134 131.037 68.1084 131.747 69.4997 131.747C70.8911 131.747 72.1863 131.037 72.9337 129.864L87.8928 106.39C111.697 109.351 122.439 116.947 122.439 121.566C122.439 128.381 101.722 137.855 69.5 137.855Z" fill="#304686"/>
<path d="M69.5 31.7051C58.2728 31.7051 49.1387 40.8392 49.1387 52.0664C49.1387 63.2936 58.2728 72.4277 69.5 72.4277C80.7272 72.4277 89.8613 63.2936 89.8613 52.0664C89.8613 40.8392 80.7272 31.7051 69.5 31.7051ZM69.5 64.2832C62.7637 64.2832 57.2832 58.8027 57.2832 52.0664C57.2832 45.3301 62.7637 39.8496 69.5 39.8496C76.2363 39.8496 81.7168 45.3301 81.7168 52.0664C81.7168 58.8027 76.2363 64.2832 69.5 64.2832Z" fill="#304686"/>
</svg>
