<svg width="189" height="196" viewBox="0 0 189 196" fill="none" xmlns="http://www.w3.org/2000/svg">
<path d="M149.231 116.431C145.522 108.698 132.253 97.9636 119.433 87.5923C112.282 81.8119 105.525 76.3468 101.218 72.0393C100.139 70.9525 98.5244 70.6059 97.0991 71.1179C94.4454 72.0788 92.8072 72.8189 91.5159 73.3936C89.5473 74.2755 88.8858 74.5749 86.2316 74.8425C85.0582 74.9607 84.0031 75.5908 83.3494 76.5672C77.7817 84.8909 72.0171 84.1822 68.1663 82.8909C66.9378 82.4815 66.7174 81.9537 66.5993 81.4498C65.7724 77.9928 69.9226 69.9444 75.301 64.5657C88.098 51.7609 94.6972 48.5557 108.636 54.7849C124.449 61.8565 140.293 67.3929 140.451 67.4479C142.522 68.1644 144.751 67.0777 145.467 65.0223C146.176 62.9669 145.097 60.7225 143.042 60.006C142.884 59.951 127.355 54.525 111.857 47.587C93.7994 39.515 83.8924 44.8307 69.741 58.9902C64.3545 64.3767 57.0385 75.2755 58.9285 83.2689C59.7395 86.6709 62.1338 89.191 65.693 90.3642C74.6155 93.3095 82.758 90.49 88.8219 82.442C91.3262 82.0563 92.6887 81.4893 94.7359 80.5679C95.476 80.2371 96.3424 79.8514 97.4923 79.3866C101.997 83.6155 108.076 88.5373 114.479 93.7111C126.055 103.074 139.183 113.69 142.136 119.833C143.593 122.864 142.025 124.841 140.962 125.747C139.403 127.086 137.269 127.511 136.111 126.699C134.836 125.825 133.174 125.77 131.859 126.558C130.536 127.345 129.796 128.833 129.961 130.361C130.229 132.866 127.937 134.299 126.945 134.795C124.425 136.071 121.795 135.85 120.81 134.937C119.708 133.913 118.125 133.614 116.723 134.134C115.321 134.661 114.345 135.953 114.203 137.449C113.967 140.032 112.053 142.512 109.557 143.481C108.352 143.938 106.603 144.213 105.036 142.78C104.06 141.898 102.705 141.559 101.438 141.866C100.154 142.181 99.1224 143.111 98.6735 144.347C98.524 144.741 98.1852 145.686 94.4997 145.686C91.8773 145.686 87.16 143.914 84.8529 142.386C82.0888 140.567 64.7558 127.636 49.7857 115.099C47.683 113.327 44.0448 109.531 40.8318 106.177C37.9809 103.2 35.3744 100.499 34.0355 99.3649C32.3582 97.9474 29.8775 98.16 28.4836 99.8296C27.082 101.491 27.2865 103.98 28.9484 105.382C30.1691 106.413 32.5316 108.909 35.1381 111.626C38.6505 115.296 42.2807 119.092 44.7221 121.139C59.3855 133.417 77.0098 146.67 80.5218 148.977C83.4199 150.883 89.6647 153.561 94.5 153.561C98.3823 153.561 101.367 152.671 103.438 150.931C106.21 152.01 109.36 152.017 112.392 150.836C115.975 149.45 118.92 146.654 120.59 143.268C123.692 143.93 127.244 143.465 130.473 141.843C133.631 140.252 135.914 137.819 137.048 134.976C140.183 135.141 143.411 134.031 146.081 131.739C150.602 127.873 151.846 121.857 149.231 116.431Z" fill="#B8C1C9"/>
<path d="M78.7499 51.1862H43.3124C41.1389 51.1862 39.3748 52.9503 39.3748 55.1238C39.3748 57.2973 41.1389 59.0614 43.3124 59.0614H78.7499C80.9234 59.0614 82.6875 57.2973 82.6875 55.1238C82.6875 52.9503 80.9234 51.1862 78.7499 51.1862Z" fill="#B8C1C9"/>
<path d="M160.768 108.051C159.547 106.248 157.106 105.752 155.303 106.981L143.79 114.714C141.987 115.926 141.506 118.376 142.719 120.179C143.483 121.305 144.727 121.919 145.995 121.919C146.743 121.919 147.507 121.707 148.184 121.25L159.698 113.517C161.5 112.304 161.981 109.855 160.768 108.051Z" fill="#B8C1C9"/>
<path d="M136.324 126.842C133.505 124.621 120.897 111.714 113.101 103.587C111.596 102.012 109.1 101.957 107.533 103.469C105.958 104.973 105.911 107.469 107.415 109.036C109.439 111.147 127.291 129.756 131.441 133.032C132.158 133.599 133.024 133.874 133.875 133.874C135.032 133.874 136.19 133.355 136.977 132.37C138.324 130.669 138.033 128.188 136.324 126.842Z" fill="#B8C1C9"/>
<path d="M120.59 134.74C115.873 130.968 104.021 118.376 101.343 115.462C99.8625 113.856 97.3819 113.761 95.7754 115.226C94.1766 116.698 94.0666 119.195 95.5391 120.794C95.6809 120.943 109.825 136.213 115.668 140.891C116.392 141.465 117.266 141.749 118.125 141.749C119.275 141.749 120.424 141.237 121.204 140.276C122.559 138.575 122.283 136.094 120.59 134.74Z" fill="#B8C1C9"/>
<path d="M104.919 142.67C99.3036 137.938 87.8141 125.708 85.5698 123.306C84.0814 121.715 81.5849 121.628 80.002 123.117C78.4114 124.605 78.3324 127.093 79.813 128.684C83.0419 132.141 94.0353 143.797 99.8393 148.695C100.579 149.317 101.477 149.624 102.375 149.624C103.493 149.624 104.612 149.144 105.391 148.222C106.793 146.553 106.58 144.072 104.919 142.67Z" fill="#B8C1C9"/>
<path d="M46.0215 44.3903C39.2725 37.9957 12.285 35.9244 4.17387 35.4442C3.05575 35.3892 2.024 35.7591 1.23662 36.5073C0.448875 37.2474 0 38.2869 0 39.3737V110.249C0 112.422 1.76412 114.186 3.93762 114.186H27.5626C29.2636 114.186 30.7756 113.092 31.3031 111.469C31.8779 109.705 45.4467 68.0626 47.2341 47.5874C47.3368 46.3903 46.8956 45.2091 46.0215 44.3903ZM24.6881 106.311H7.87488V43.5948C20.5301 44.5948 34.1854 46.7683 39.1466 49.1781C37.0599 66.4243 27.6176 97.066 24.6881 106.311Z" fill="#B8C1C9"/>
<path d="M185.062 43.3113C154.145 43.3113 136.993 51.2257 136.277 51.5564C135.253 52.0367 134.489 52.9267 134.174 54.0056C133.859 55.0846 134.016 56.2423 134.607 57.2028C139.474 65.0385 154.712 108.556 157.641 119.171C158.114 120.88 159.665 122.061 161.437 122.061H185.062C187.236 122.061 189 120.297 189 118.124V47.2485C189 45.0673 187.236 43.3113 185.062 43.3113ZM181.125 114.186H164.383C160.65 102.027 149.625 70.3224 143.475 57.2187C149.483 55.1792 162.39 51.6745 181.125 51.2338V114.186Z" fill="#B8C1C9"/>
<path d="M149.231 123.431C145.522 115.698 132.253 104.964 119.433 94.5923C112.282 88.8119 105.525 83.3468 101.218 79.0393C100.139 77.9525 98.5244 77.6059 97.0991 78.1179C94.4454 79.0788 92.8072 79.8189 91.5159 80.3936C89.5473 81.2755 88.8858 81.5749 86.2316 81.8425C85.0582 81.9607 84.0031 82.5908 83.3494 83.5672C77.7817 91.8909 72.0171 91.1822 68.1663 89.8909C66.9378 89.4815 66.7174 88.9537 66.5993 88.4498C65.7724 84.9928 69.9226 76.9444 75.301 71.5657C88.098 58.7609 94.6972 55.5557 108.636 61.7849C124.449 68.8565 140.293 74.3929 140.451 74.4479C142.522 75.1644 144.751 74.0777 145.467 72.0223C146.176 69.9669 145.097 67.7225 143.042 67.006C142.884 66.951 127.355 61.525 111.857 54.587C93.7994 46.515 83.8924 51.8307 69.741 65.9902C64.3545 71.3767 57.0385 82.2755 58.9285 90.2689C59.7395 93.6709 62.1338 96.191 65.693 97.3642C74.6155 100.31 82.758 97.49 88.8219 89.442C91.3262 89.0563 92.6887 88.4893 94.7359 87.5679C95.476 87.2371 96.3424 86.8514 97.4923 86.3866C101.997 90.6155 108.076 95.5373 114.479 100.711C126.055 110.074 139.183 120.69 142.136 126.833C143.593 129.864 142.025 131.841 140.962 132.747C139.403 134.086 137.269 134.511 136.111 133.699C134.836 132.825 133.174 132.77 131.859 133.558C130.536 134.345 129.796 135.833 129.961 137.361C130.229 139.866 127.937 141.299 126.945 141.795C124.425 143.071 121.795 142.85 120.81 141.937C119.708 140.913 118.125 140.614 116.723 141.134C115.321 141.661 114.345 142.953 114.203 144.449C113.967 147.032 112.053 149.512 109.557 150.481C108.352 150.938 106.603 151.213 105.036 149.78C104.06 148.898 102.705 148.559 101.438 148.866C100.154 149.181 99.1224 150.111 98.6735 151.347C98.524 151.741 98.1852 152.686 94.4997 152.686C91.8773 152.686 87.16 150.914 84.8529 149.386C82.0888 147.567 64.7558 134.636 49.7857 122.099C47.683 120.327 44.0448 116.531 40.8318 113.177C37.9809 110.2 35.3744 107.499 34.0355 106.365C32.3582 104.947 29.8775 105.16 28.4836 106.83C27.082 108.491 27.2865 110.98 28.9484 112.382C30.1691 113.413 32.5316 115.909 35.1381 118.626C38.6505 122.296 42.2807 126.092 44.7221 128.139C59.3855 140.417 77.0098 153.67 80.5218 155.977C83.4199 157.883 89.6647 160.561 94.5 160.561C98.3823 160.561 101.367 159.671 103.438 157.931C106.21 159.01 109.36 159.017 112.392 157.836C115.975 156.45 118.92 153.654 120.59 150.268C123.692 150.93 127.244 150.465 130.473 148.843C133.631 147.252 135.914 144.819 137.048 141.976C140.183 142.141 143.411 141.031 146.081 138.739C150.602 134.873 151.846 128.857 149.231 123.431Z" fill="#304686"/>
<path d="M78.7499 58.1862H43.3124C41.1389 58.1862 39.3748 59.9503 39.3748 62.1238C39.3748 64.2973 41.1389 66.0614 43.3124 66.0614H78.7499C80.9234 66.0614 82.6875 64.2973 82.6875 62.1238C82.6875 59.9503 80.9234 58.1862 78.7499 58.1862Z" fill="#304686"/>
<path d="M160.768 115.051C159.547 113.248 157.106 112.752 155.303 113.981L143.79 121.714C141.987 122.926 141.506 125.376 142.719 127.179C143.483 128.305 144.727 128.919 145.995 128.919C146.743 128.919 147.507 128.707 148.184 128.25L159.698 120.517C161.5 119.304 161.981 116.855 160.768 115.051Z" fill="#304686"/>
<path d="M136.324 133.842C133.505 131.621 120.897 118.714 113.101 110.587C111.596 109.012 109.1 108.957 107.533 110.469C105.958 111.973 105.911 114.469 107.415 116.036C109.439 118.147 127.291 136.756 131.441 140.032C132.158 140.599 133.024 140.874 133.875 140.874C135.032 140.874 136.19 140.355 136.977 139.37C138.324 137.669 138.033 135.188 136.324 133.842Z" fill="#304686"/>
<path d="M120.59 141.74C115.873 137.968 104.021 125.376 101.343 122.462C99.8625 120.856 97.3819 120.761 95.7754 122.226C94.1766 123.698 94.0666 126.195 95.5391 127.794C95.6809 127.943 109.825 143.213 115.668 147.891C116.392 148.465 117.266 148.749 118.125 148.749C119.275 148.749 120.424 148.237 121.204 147.276C122.559 145.575 122.283 143.094 120.59 141.74Z" fill="#304686"/>
<path d="M104.919 149.67C99.3036 144.938 87.8141 132.708 85.5698 130.306C84.0814 128.715 81.5849 128.628 80.002 130.117C78.4114 131.605 78.3324 134.093 79.813 135.684C83.0419 139.141 94.0353 150.797 99.8393 155.695C100.579 156.317 101.477 156.624 102.375 156.624C103.493 156.624 104.612 156.144 105.391 155.222C106.793 153.553 106.58 151.072 104.919 149.67Z" fill="#304686"/>
<path d="M46.0215 51.3903C39.2725 44.9957 12.285 42.9244 4.17387 42.4442C3.05575 42.3892 2.024 42.7591 1.23662 43.5073C0.448875 44.2474 0 45.2869 0 46.3737V117.249C0 119.422 1.76412 121.186 3.93762 121.186H27.5626C29.2636 121.186 30.7756 120.092 31.3031 118.469C31.8779 116.705 45.4467 75.0626 47.2341 54.5874C47.3368 53.3903 46.8956 52.2091 46.0215 51.3903ZM24.6881 113.311H7.87488V50.5948C20.5301 51.5948 34.1854 53.7683 39.1466 56.1781C37.0599 73.4243 27.6176 104.066 24.6881 113.311Z" fill="#304686"/>
<path d="M185.062 50.3113C154.145 50.3113 136.993 58.2257 136.277 58.5564C135.253 59.0367 134.489 59.9267 134.174 61.0056C133.859 62.0846 134.016 63.2423 134.607 64.2028C139.474 72.0385 154.712 115.556 157.641 126.171C158.114 127.88 159.665 129.061 161.437 129.061H185.062C187.236 129.061 189 127.297 189 125.124V54.2485C189 52.0673 187.236 50.3113 185.062 50.3113ZM181.125 121.186H164.383C160.65 109.027 149.625 77.3224 143.475 64.2187C149.483 62.1792 162.39 58.6745 181.125 58.2338V121.186Z" fill="#304686"/>
</svg>
